<svg id="Lag_1" data-name="Lag 1" xmlns="http://www.w3.org/2000/svg" viewBox="0 0 103.9 103.9"><defs><style>.cls-1,.cls-5{fill:#fff;}.cls-2,.cls-4{fill:#272525;}.cls-3{fill:none;}.cls-3,.cls-5{stroke:#272525;stroke-linecap:round;stroke-linejoin:round;}.cls-4{font-size:12px;font-family:AvenirNext-DemiBold, Avenir Next;font-weight:700;}</style></defs><title>logic-xnor</title><rect class="cls-1" x="16.21" y="16.22" width="71.47" height="71.47" transform="translate(-21.52 51.95) rotate(-45)"/><path class="cls-2" d="M52,2.83,101.07,52,52,101.07,2.83,52,52,2.83M52,0,0,52l52,52L103.9,52,52,0Z"/><line class="cls-3" x1="80.97" y1="47.78" x2="71.97" y2="47.78"/><path class="cls-1" d="M36.35,62.78c2.11-3.31,3.4-8.92,3.4-15s-1.29-11.68-3.4-15H50.42c10.45,0,18.67,13,19.85,15-1.17,2-9.34,15-19.85,15Z"/><path class="cls-2" d="M50.42,33.29c9.81,0,17.67,11.91,19.26,14.5-1.58,2.58-9.4,14.49-19.26,14.49H37.23c1.91-3.45,3-8.69,3-14.5s-1.11-11-3-14.49H50.42m0-1h-15c2.37,3.05,3.86,8.93,3.86,15.49s-1.49,12.45-3.86,15.5h15c11.74,0,20.43-15.5,20.43-15.5S62.1,32.29,50.42,32.29Z"/><text class="cls-4" transform="translate(34.45 79.96)">XNOR</text><line class="cls-3" x1="38.56" y1="37.86" x2="29.56" y2="37.86"/><line class="cls-3" x1="38.56" y1="57.7" x2="29.56" y2="57.7"/><text class="cls-4" transform="translate(45.79 51.67)">=1</text><circle class="cls-5" cx="73.08" cy="47.76" r="2.77"/><path class="cls-3" d="M32.91,63.28c2.37-3.05,3.86-8.94,3.86-15.5s-1.49-12.44-3.86-15.49"/></svg>