<svg id="Lag_1" data-name="Lag 1" xmlns="http://www.w3.org/2000/svg" viewBox="0 0 103.9 103.9"><defs><style>.cls-1,.cls-7{fill:#fff;}.cls-2,.cls-3{fill:#272525;}.cls-3{font-size:12px;font-family:AvenirNext-DemiBold, Avenir Next;font-weight:700;}.cls-4{letter-spacing:-0.03em;}.cls-5{letter-spacing:-0.02em;}.cls-6{fill:none;}.cls-6,.cls-7{stroke:#272525;stroke-linecap:round;stroke-linejoin:round;}</style></defs><title>logic-not</title><rect class="cls-1" x="16.22" y="16.22" width="71.46" height="71.46" transform="translate(-21.52 51.95) rotate(-45)"/><path class="cls-2" d="M52,2.83,101.07,52,52,101.07,2.83,52,52,2.83M52,0,0,52l52,52L103.9,52,52,0Z"/><text class="cls-3" transform="translate(39.09 79.96)">N<tspan class="cls-4" x="9.36" y="0">O</tspan><tspan class="cls-5" x="19.19" y="0">T</tspan></text><polygon class="cls-1" points="40.08 31.84 69.44 48.79 40.08 65.74 40.08 31.84"/><path class="cls-2" d="M40.58,32.7,68.44,48.79,40.58,64.87V32.7m-1-1.73V66.6L70.44,48.79,39.58,31Z"/><line class="cls-6" x1="39.72" y1="48.95" x2="30.72" y2="48.95"/><line class="cls-6" x1="84.55" y1="48.79" x2="75.55" y2="48.79"/><text class="cls-3" transform="translate(46.98 52.86)">1</text><circle class="cls-7" cx="72.4" cy="48.79" r="2.77"/></svg>