<svg id="Lag_1" data-name="Lag 1" xmlns="http://www.w3.org/2000/svg" viewBox="0 0 84.06 88"><defs><style>.cls-1{fill:#fff;}.cls-2{fill:#272525;}.cls-3{fill:none;stroke:#272425;stroke-miterlimit:10;stroke-width:2px;}</style></defs><title>resonator</title><polygon class="cls-1" points="1 1.65 81.9 44 1 86.35 1 1.65"/><path class="cls-2" d="M2,3.3,79.75,44,2,84.7V3.3M0,0V88L84.06,44,0,0Z"/><path class="cls-3" d="M5.32,54h5.51V37.55c0-3.12,1.24-4.67,2.76-4.67s2.75,1.55,2.75,4.67V54H24.2V37.55c0-3.12,1.24-4.67,2.75-4.67s2.76,1.55,2.76,4.67V54h7.86V37.55c0-3.12,1.24-4.67,2.75-4.67s2.76,1.55,2.76,4.67V54h10.1"/></svg>